<svg xmlns="http://www.w3.org/2000/svg" xmlns:xlink="http://www.w3.org/1999/xlink" width="500" zoomAndPan="magnify" viewBox="0 0 375 374.999991" height="500" preserveAspectRatio="xMidYMid meet" version="1.0"><defs><g/><clipPath id="a71da19f1f"><path d="M 100 349 L 183 349 L 183 372.878906 L 100 372.878906 Z M 100 349 " clip-rule="nonzero"/></clipPath><clipPath id="86dd768440"><rect x="0" width="83" y="0" height="24"/></clipPath><clipPath id="b4d064393b"><path d="M 110 4 L 178 4 L 178 117 L 110 117 Z M 110 4 " clip-rule="nonzero"/></clipPath><clipPath id="080b444a56"><path d="M 79.167969 10.777344 L 193.8125 -2.03125 L 206.324219 109.945312 L 91.679688 122.753906 Z M 79.167969 10.777344 " clip-rule="nonzero"/></clipPath><clipPath id="348dd74922"><path d="M 79.167969 10.777344 L 193.8125 -2.03125 L 206.324219 109.945312 L 91.679688 122.753906 Z M 79.167969 10.777344 " clip-rule="nonzero"/></clipPath><clipPath id="3e4ec23851"><path d="M 0.800781 190 L 285.40625 190 L 285.40625 301 L 0.800781 301 Z M 0.800781 190 " clip-rule="nonzero"/></clipPath><clipPath id="577f85187d"><path d="M 0.800781 0.238281 L 285.40625 0.238281 L 285.40625 110.640625 L 0.800781 110.640625 Z M 0.800781 0.238281 " clip-rule="nonzero"/></clipPath><clipPath id="60191926f1"><rect x="0" width="286" y="0" height="111"/></clipPath><clipPath id="c173ae2e99"><path d="M 138 74 L 158 74 L 158 217 L 138 217 Z M 138 74 " clip-rule="nonzero"/></clipPath><clipPath id="9d77dbfc9b"><path d="M 71.113281 145.746094 L 145.472656 74.707031 L 219.601562 152.296875 L 145.242188 223.335938 Z M 71.113281 145.746094 " clip-rule="nonzero"/></clipPath><clipPath id="3e110e037a"><path d="M 71.113281 145.746094 L 145.472656 74.707031 L 219.601562 152.296875 L 145.242188 223.335938 Z M 71.113281 145.746094 " clip-rule="nonzero"/></clipPath><clipPath id="a331cf4a55"><path d="M 159 112.308594 L 234 112.308594 L 234 192 L 159 192 Z M 159 112.308594 " clip-rule="nonzero"/></clipPath><clipPath id="28ecd4eacc"><path d="M 54 127 L 144 127 L 144 196 L 54 196 Z M 54 127 " clip-rule="nonzero"/></clipPath><clipPath id="0d09f5662a"><path d="M 54.3125 127.667969 L 130.515625 108.035156 L 155.058594 203.289062 L 78.855469 222.925781 Z M 54.3125 127.667969 " clip-rule="nonzero"/></clipPath><clipPath id="cdbf9ac723"><path d="M 54.3125 127.667969 L 130.515625 108.035156 L 155.058594 203.289062 L 78.855469 222.925781 Z M 54.3125 127.667969 " clip-rule="nonzero"/></clipPath><clipPath id="c1d228578f"><rect x="0" width="286" y="0" height="373"/></clipPath></defs><g transform="matrix(1, 0, 0, 1, 46, 2)"><g clip-path="url(#c1d228578f)"><g clip-path="url(#a71da19f1f)"><g transform="matrix(1, 0, 0, 1, 100, 349)"><g clip-path="url(#86dd768440)"><g fill="#ffffff" fill-opacity="1"><g transform="translate(2.155481, 8.658983)"><g><path d="M 2.328125 -2.703125 C 2.828125 -2.703125 3.191406 -2.816406 3.421875 -3.046875 C 3.648438 -3.273438 3.765625 -3.644531 3.765625 -4.15625 C 3.765625 -4.65625 3.644531 -5.003906 3.40625 -5.203125 C 3.175781 -5.398438 2.804688 -5.5 2.296875 -5.5 L 1.859375 -5.5 L 1.859375 -2.703125 Z M 4.640625 -4.15625 C 4.640625 -3.519531 4.453125 -3.050781 4.078125 -2.75 C 3.703125 -2.457031 3.1875 -2.3125 2.53125 -2.3125 L 1.859375 -2.3125 L 1.859375 -0.34375 L 2.796875 -0.234375 L 2.796875 0 L 0.3125 0 L 0.3125 -0.234375 L 1.015625 -0.34375 L 1.015625 -5.546875 L 0.265625 -5.65625 L 0.265625 -5.890625 L 2.484375 -5.890625 C 3.921875 -5.890625 4.640625 -5.3125 4.640625 -4.15625 Z M 4.640625 -4.15625 "/></g></g></g><g fill="#ffffff" fill-opacity="1"><g transform="translate(7.156576, 8.658983)"><g><path d="M 0.265625 -0.234375 L 1.03125 -0.34375 L 1.03125 -5.546875 L 0.265625 -5.65625 L 0.265625 -5.890625 L 4.6875 -5.890625 L 4.6875 -4.484375 L 4.40625 -4.484375 L 4.25 -5.4375 C 4.082031 -5.457031 3.878906 -5.472656 3.640625 -5.484375 C 3.410156 -5.492188 3.140625 -5.5 2.828125 -5.5 L 1.859375 -5.5 L 1.859375 -3.1875 L 3.453125 -3.1875 L 3.59375 -3.890625 L 3.875 -3.890625 L 3.875 -2.09375 L 3.59375 -2.09375 L 3.453125 -2.796875 L 1.859375 -2.796875 L 1.859375 -0.390625 L 3.03125 -0.390625 C 3.40625 -0.390625 3.71875 -0.394531 3.96875 -0.40625 C 4.21875 -0.425781 4.398438 -0.445312 4.515625 -0.46875 L 4.765625 -1.5625 L 5.046875 -1.5625 L 4.96875 0 L 0.265625 0 Z M 0.265625 -0.234375 "/></g></g></g><g fill="#ffffff" fill-opacity="1"><g transform="translate(12.643394, 8.658983)"><g><path d="M 3.25 -5.609375 L 3.265625 -5.609375 C 2.753906 -5.609375 2.351562 -5.503906 2.0625 -5.296875 C 1.78125 -5.085938 1.582031 -4.78125 1.46875 -4.375 C 1.351562 -3.976562 1.296875 -3.503906 1.296875 -2.953125 C 1.296875 -2.003906 1.453125 -1.320312 1.765625 -0.90625 C 2.078125 -0.476562 2.578125 -0.265625 3.265625 -0.265625 C 3.941406 -0.265625 4.4375 -0.472656 4.75 -0.890625 C 5.0625 -1.304688 5.21875 -1.988281 5.21875 -2.9375 C 5.21875 -3.882812 5.054688 -4.566406 4.734375 -4.984375 C 4.410156 -5.398438 3.914062 -5.609375 3.25 -5.609375 Z M 3.265625 0.078125 C 2.304688 0.078125 1.585938 -0.179688 1.109375 -0.703125 C 0.628906 -1.234375 0.390625 -1.984375 0.390625 -2.953125 C 0.390625 -4.960938 1.347656 -5.96875 3.265625 -5.96875 C 4.234375 -5.96875 4.953125 -5.707031 5.421875 -5.1875 C 5.898438 -4.675781 6.140625 -3.929688 6.140625 -2.953125 C 6.140625 -1.515625 5.625 -0.582031 4.59375 -0.15625 L 4.8125 0.109375 C 5.070312 0.441406 5.289062 0.675781 5.46875 0.8125 C 5.65625 0.945312 5.832031 1.015625 6 1.015625 L 6.359375 1 L 6.359375 1.28125 C 6.316406 1.300781 6.238281 1.320312 6.125 1.34375 C 6.007812 1.375 5.894531 1.398438 5.78125 1.421875 C 5.664062 1.441406 5.566406 1.453125 5.484375 1.453125 C 5.242188 1.453125 5.046875 1.410156 4.890625 1.328125 C 4.734375 1.253906 4.585938 1.148438 4.453125 1.015625 C 4.285156 0.867188 4.007812 0.550781 3.625 0.0625 C 3.570312 0.0703125 3.515625 0.078125 3.453125 0.078125 C 3.390625 0.078125 3.328125 0.078125 3.265625 0.078125 Z M 3.265625 0.078125 "/></g></g></g><g fill="#ffffff" fill-opacity="1"><g transform="translate(19.137628, 8.658983)"><g><path d="M 3.34375 -0.40625 C 3.894531 -0.40625 4.320312 -0.535156 4.625 -0.796875 C 4.9375 -1.054688 5.09375 -1.453125 5.09375 -1.984375 L 5.09375 -5.546875 L 4.296875 -5.65625 L 4.296875 -5.890625 L 6.3125 -5.890625 L 6.3125 -5.65625 L 5.546875 -5.546875 L 5.546875 -2.03125 C 5.546875 -1.300781 5.347656 -0.765625 4.953125 -0.421875 C 4.566406 -0.078125 4.007812 0.09375 3.28125 0.09375 C 2.5625 0.09375 1.988281 -0.0703125 1.5625 -0.40625 C 1.144531 -0.738281 0.9375 -1.25 0.9375 -1.9375 L 0.9375 -5.546875 L 0.1875 -5.65625 L 0.1875 -5.890625 L 2.546875 -5.890625 L 2.546875 -5.65625 L 1.796875 -5.546875 L 1.796875 -2 C 1.796875 -0.9375 2.3125 -0.40625 3.34375 -0.40625 Z M 3.34375 -0.40625 "/></g></g></g><g fill="#ffffff" fill-opacity="1"><g transform="translate(25.631861, 8.658983)"><g><path d="M 0.265625 -0.234375 L 1.03125 -0.34375 L 1.03125 -5.546875 L 0.265625 -5.65625 L 0.265625 -5.890625 L 4.6875 -5.890625 L 4.6875 -4.484375 L 4.40625 -4.484375 L 4.25 -5.4375 C 4.082031 -5.457031 3.878906 -5.472656 3.640625 -5.484375 C 3.410156 -5.492188 3.140625 -5.5 2.828125 -5.5 L 1.859375 -5.5 L 1.859375 -3.1875 L 3.453125 -3.1875 L 3.59375 -3.890625 L 3.875 -3.890625 L 3.875 -2.09375 L 3.59375 -2.09375 L 3.453125 -2.796875 L 1.859375 -2.796875 L 1.859375 -0.390625 L 3.03125 -0.390625 C 3.40625 -0.390625 3.71875 -0.394531 3.96875 -0.40625 C 4.21875 -0.425781 4.398438 -0.445312 4.515625 -0.46875 L 4.765625 -1.5625 L 5.046875 -1.5625 L 4.96875 0 L 0.265625 0 Z M 0.265625 -0.234375 "/></g></g></g><g fill="#ffffff" fill-opacity="1"><g transform="translate(31.118679, 8.658983)"><g><path d="M 5.078125 -5.546875 L 4.28125 -5.65625 L 4.28125 -5.890625 L 6.296875 -5.890625 L 6.296875 -5.65625 L 5.53125 -5.546875 L 5.53125 0 L 5.109375 0 L 1.46875 -5.296875 L 1.46875 -0.34375 L 2.265625 -0.234375 L 2.265625 0 L 0.265625 0 L 0.265625 -0.234375 L 1.015625 -0.34375 L 1.015625 -5.546875 L 0.265625 -5.65625 L 0.265625 -5.890625 L 2.046875 -5.890625 L 5.078125 -1.53125 Z M 5.078125 -5.546875 "/></g></g></g><g fill="#ffffff" fill-opacity="1"><g transform="translate(37.612913, 8.658983)"><g><path d="M 2.03125 -0.234375 L 2.03125 0 L 0.09375 0 L 0.09375 -0.234375 L 0.75 -0.34375 L 2.765625 -5.9375 L 3.59375 -5.9375 L 5.6875 -0.34375 L 6.4375 -0.234375 L 6.4375 0 L 3.9375 0 L 3.9375 -0.234375 L 4.734375 -0.34375 L 4.15625 -2.046875 L 1.828125 -2.046875 L 1.234375 -0.34375 Z M 2.96875 -5.3125 L 1.96875 -2.453125 L 4.015625 -2.453125 Z M 2.96875 -5.3125 "/></g></g></g><g fill="#ffffff" fill-opacity="1"><g transform="translate(44.107146, 8.658983)"><g><path d="M 2.421875 0.09375 L 2.421875 0.078125 C 2.097656 0.078125 1.773438 0.0507812 1.453125 0 C 1.128906 -0.0625 0.847656 -0.140625 0.609375 -0.234375 L 0.609375 -1.59375 L 0.90625 -1.59375 L 1.046875 -0.796875 C 1.117188 -0.710938 1.226562 -0.628906 1.375 -0.546875 C 1.53125 -0.472656 1.695312 -0.410156 1.875 -0.359375 C 2.0625 -0.304688 2.234375 -0.28125 2.390625 -0.28125 C 2.785156 -0.28125 3.101562 -0.378906 3.34375 -0.578125 C 3.582031 -0.773438 3.703125 -1.066406 3.703125 -1.453125 C 3.703125 -1.679688 3.648438 -1.867188 3.546875 -2.015625 C 3.453125 -2.160156 3.328125 -2.28125 3.171875 -2.375 C 3.015625 -2.46875 2.847656 -2.539062 2.671875 -2.59375 C 2.492188 -2.65625 2.320312 -2.71875 2.15625 -2.78125 C 1.882812 -2.875 1.628906 -2.984375 1.390625 -3.109375 C 1.160156 -3.234375 0.972656 -3.398438 0.828125 -3.609375 C 0.679688 -3.828125 0.609375 -4.113281 0.609375 -4.46875 C 0.609375 -4.8125 0.695312 -5.09375 0.875 -5.3125 C 1.050781 -5.539062 1.289062 -5.707031 1.59375 -5.8125 C 1.894531 -5.914062 2.226562 -5.96875 2.59375 -5.96875 C 3.0625 -5.96875 3.578125 -5.90625 4.140625 -5.78125 L 4.140625 -4.546875 L 3.859375 -4.546875 L 3.703125 -5.28125 C 3.410156 -5.488281 3.039062 -5.59375 2.59375 -5.59375 C 2.25 -5.59375 1.953125 -5.519531 1.703125 -5.375 C 1.460938 -5.238281 1.34375 -5.015625 1.34375 -4.703125 C 1.34375 -4.492188 1.390625 -4.328125 1.484375 -4.203125 C 1.578125 -4.078125 1.691406 -3.972656 1.828125 -3.890625 C 1.972656 -3.796875 2.140625 -3.71875 2.328125 -3.65625 C 2.515625 -3.59375 2.703125 -3.53125 2.890625 -3.46875 C 3.160156 -3.375 3.410156 -3.257812 3.640625 -3.125 C 3.878906 -2.988281 4.070312 -2.804688 4.21875 -2.578125 C 4.375 -2.359375 4.453125 -2.066406 4.453125 -1.703125 C 4.453125 -1.097656 4.265625 -0.644531 3.890625 -0.34375 C 3.523438 -0.0507812 3.035156 0.09375 2.421875 0.09375 Z M 2.421875 0.09375 "/></g></g></g><g fill="#ffffff" fill-opacity="1"><g transform="translate(49.108242, 8.658983)"><g/></g></g><g fill="#ffffff" fill-opacity="1"><g transform="translate(51.356933, 8.658983)"><g><path d="M 2.03125 -0.234375 L 2.03125 0 L 0.09375 0 L 0.09375 -0.234375 L 0.75 -0.34375 L 2.765625 -5.9375 L 3.59375 -5.9375 L 5.6875 -0.34375 L 6.4375 -0.234375 L 6.4375 0 L 3.9375 0 L 3.9375 -0.234375 L 4.734375 -0.34375 L 4.15625 -2.046875 L 1.828125 -2.046875 L 1.234375 -0.34375 Z M 2.96875 -5.3125 L 1.96875 -2.453125 L 4.015625 -2.453125 Z M 2.96875 -5.3125 "/></g></g></g><g fill="#ffffff" fill-opacity="1"><g transform="translate(57.851166, 8.658983)"><g><path d="M 1.28125 -2.890625 C 1.28125 -2.367188 1.351562 -1.910156 1.5 -1.515625 C 1.65625 -1.117188 1.882812 -0.804688 2.1875 -0.578125 C 2.5 -0.359375 2.90625 -0.25 3.40625 -0.25 C 3.726562 -0.25 4.035156 -0.289062 4.328125 -0.375 C 4.628906 -0.457031 4.875 -0.5625 5.0625 -0.6875 L 5.21875 -1.578125 L 5.515625 -1.578125 L 5.484375 -0.1875 C 4.847656 0 4.15625 0.09375 3.40625 0.09375 C 2.769531 0.09375 2.222656 -0.0195312 1.765625 -0.25 C 1.316406 -0.488281 0.972656 -0.828125 0.734375 -1.265625 C 0.492188 -1.710938 0.375 -2.25 0.375 -2.875 C 0.375 -3.894531 0.628906 -4.660156 1.140625 -5.171875 C 1.648438 -5.691406 2.410156 -5.953125 3.421875 -5.953125 C 3.722656 -5.953125 4.039062 -5.929688 4.375 -5.890625 C 4.707031 -5.859375 5.046875 -5.804688 5.390625 -5.734375 L 5.421875 -4.453125 L 5.125 -4.453125 L 5 -5.21875 C 4.8125 -5.332031 4.582031 -5.425781 4.3125 -5.5 C 4.039062 -5.570312 3.753906 -5.609375 3.453125 -5.609375 C 2.910156 -5.609375 2.484375 -5.5 2.171875 -5.28125 C 1.859375 -5.0625 1.628906 -4.75 1.484375 -4.34375 C 1.347656 -3.945312 1.28125 -3.460938 1.28125 -2.890625 Z M 3.34375 0.28125 L 3.359375 0.28125 C 3.585938 0.300781 3.785156 0.367188 3.953125 0.484375 C 4.128906 0.609375 4.21875 0.789062 4.21875 1.03125 C 4.21875 1.3125 4.109375 1.53125 3.890625 1.6875 C 3.679688 1.84375 3.425781 1.921875 3.125 1.921875 C 2.90625 1.921875 2.703125 1.882812 2.515625 1.8125 L 2.515625 1.5 C 2.566406 1.507812 2.648438 1.519531 2.765625 1.53125 C 2.878906 1.550781 2.96875 1.5625 3.03125 1.5625 C 3.1875 1.5625 3.304688 1.519531 3.390625 1.4375 C 3.484375 1.363281 3.53125 1.253906 3.53125 1.109375 C 3.53125 0.929688 3.460938 0.800781 3.328125 0.71875 C 3.191406 0.644531 3.039062 0.601562 2.875 0.59375 L 3.046875 -0.078125 L 3.421875 -0.078125 Z M 3.34375 0.28125 "/></g></g></g><g fill="#ffffff" fill-opacity="1"><g transform="translate(63.841687, 8.658983)"><g><path d="M 3.25 -5.609375 L 3.25 -5.59375 C 2.738281 -5.59375 2.335938 -5.488281 2.046875 -5.28125 C 1.765625 -5.070312 1.566406 -4.769531 1.453125 -4.375 C 1.335938 -3.976562 1.28125 -3.5 1.28125 -2.9375 C 1.28125 -2 1.441406 -1.316406 1.765625 -0.890625 C 2.078125 -0.472656 2.570312 -0.265625 3.25 -0.265625 C 3.757812 -0.265625 4.15625 -0.367188 4.4375 -0.578125 C 4.71875 -0.796875 4.914062 -1.101562 5.03125 -1.5 C 5.15625 -1.90625 5.21875 -2.390625 5.21875 -2.953125 C 5.21875 -3.890625 5.054688 -4.566406 4.734375 -4.984375 C 4.421875 -5.398438 3.925781 -5.609375 3.25 -5.609375 Z M 3.25 0.09375 C 2.289062 0.09375 1.570312 -0.164062 1.09375 -0.6875 C 0.613281 -1.207031 0.375 -1.957031 0.375 -2.9375 C 0.375 -4.945312 1.332031 -5.953125 3.25 -5.953125 C 4.21875 -5.953125 4.9375 -5.691406 5.40625 -5.171875 C 5.882812 -4.660156 6.125 -3.914062 6.125 -2.9375 C 6.125 -1.957031 5.882812 -1.207031 5.40625 -0.6875 C 4.925781 -0.164062 4.207031 0.09375 3.25 0.09375 Z M 4 -6.90625 C 4.15625 -6.90625 4.257812 -6.953125 4.3125 -7.046875 C 4.363281 -7.140625 4.398438 -7.265625 4.421875 -7.421875 L 4.65625 -7.421875 C 4.613281 -6.710938 4.320312 -6.359375 3.78125 -6.359375 C 3.632812 -6.359375 3.5 -6.390625 3.375 -6.453125 C 3.257812 -6.523438 3.15625 -6.597656 3.0625 -6.671875 C 3.007812 -6.710938 2.957031 -6.75 2.90625 -6.78125 C 2.851562 -6.820312 2.804688 -6.859375 2.765625 -6.890625 C 2.660156 -6.953125 2.5625 -6.984375 2.46875 -6.984375 C 2.300781 -6.984375 2.191406 -6.9375 2.140625 -6.84375 C 2.085938 -6.75 2.050781 -6.625 2.03125 -6.46875 L 1.796875 -6.46875 C 1.835938 -7.175781 2.125 -7.53125 2.65625 -7.53125 C 2.8125 -7.53125 2.945312 -7.492188 3.0625 -7.421875 C 3.1875 -7.347656 3.296875 -7.28125 3.390625 -7.21875 C 3.441406 -7.175781 3.492188 -7.132812 3.546875 -7.09375 C 3.597656 -7.0625 3.648438 -7.03125 3.703125 -7 C 3.796875 -6.9375 3.894531 -6.90625 4 -6.90625 Z M 4 -6.90625 "/></g></g></g><g fill="#ffffff" fill-opacity="1"><g transform="translate(70.33592, 8.658983)"><g><path d="M 0.265625 -0.234375 L 1.03125 -0.34375 L 1.03125 -5.546875 L 0.265625 -5.65625 L 0.265625 -5.890625 L 4.6875 -5.890625 L 4.6875 -4.484375 L 4.40625 -4.484375 L 4.25 -5.4375 C 4.082031 -5.457031 3.878906 -5.472656 3.640625 -5.484375 C 3.410156 -5.492188 3.140625 -5.5 2.828125 -5.5 L 1.859375 -5.5 L 1.859375 -3.1875 L 3.453125 -3.1875 L 3.59375 -3.890625 L 3.875 -3.890625 L 3.875 -2.09375 L 3.59375 -2.09375 L 3.453125 -2.796875 L 1.859375 -2.796875 L 1.859375 -0.390625 L 3.03125 -0.390625 C 3.40625 -0.390625 3.71875 -0.394531 3.96875 -0.40625 C 4.21875 -0.425781 4.398438 -0.445312 4.515625 -0.46875 L 4.765625 -1.5625 L 5.046875 -1.5625 L 4.96875 0 L 0.265625 0 Z M 0.265625 -0.234375 "/></g></g></g><g fill="#ffffff" fill-opacity="1"><g transform="translate(75.822738, 8.658983)"><g><path d="M 2.421875 0.09375 L 2.421875 0.078125 C 2.097656 0.078125 1.773438 0.0507812 1.453125 0 C 1.128906 -0.0625 0.847656 -0.140625 0.609375 -0.234375 L 0.609375 -1.59375 L 0.90625 -1.59375 L 1.046875 -0.796875 C 1.117188 -0.710938 1.226562 -0.628906 1.375 -0.546875 C 1.53125 -0.472656 1.695312 -0.410156 1.875 -0.359375 C 2.0625 -0.304688 2.234375 -0.28125 2.390625 -0.28125 C 2.785156 -0.28125 3.101562 -0.378906 3.34375 -0.578125 C 3.582031 -0.773438 3.703125 -1.066406 3.703125 -1.453125 C 3.703125 -1.679688 3.648438 -1.867188 3.546875 -2.015625 C 3.453125 -2.160156 3.328125 -2.28125 3.171875 -2.375 C 3.015625 -2.46875 2.847656 -2.539062 2.671875 -2.59375 C 2.492188 -2.65625 2.320312 -2.71875 2.15625 -2.78125 C 1.882812 -2.875 1.628906 -2.984375 1.390625 -3.109375 C 1.160156 -3.234375 0.972656 -3.398438 0.828125 -3.609375 C 0.679688 -3.828125 0.609375 -4.113281 0.609375 -4.46875 C 0.609375 -4.8125 0.695312 -5.09375 0.875 -5.3125 C 1.050781 -5.539062 1.289062 -5.707031 1.59375 -5.8125 C 1.894531 -5.914062 2.226562 -5.96875 2.59375 -5.96875 C 3.0625 -5.96875 3.578125 -5.90625 4.140625 -5.78125 L 4.140625 -4.546875 L 3.859375 -4.546875 L 3.703125 -5.28125 C 3.410156 -5.488281 3.039062 -5.59375 2.59375 -5.59375 C 2.25 -5.59375 1.953125 -5.519531 1.703125 -5.375 C 1.460938 -5.238281 1.34375 -5.015625 1.34375 -4.703125 C 1.34375 -4.492188 1.390625 -4.328125 1.484375 -4.203125 C 1.578125 -4.078125 1.691406 -3.972656 1.828125 -3.890625 C 1.972656 -3.796875 2.140625 -3.71875 2.328125 -3.65625 C 2.515625 -3.59375 2.703125 -3.53125 2.890625 -3.46875 C 3.160156 -3.375 3.410156 -3.257812 3.640625 -3.125 C 3.878906 -2.988281 4.070312 -2.804688 4.21875 -2.578125 C 4.375 -2.359375 4.453125 -2.066406 4.453125 -1.703125 C 4.453125 -1.097656 4.265625 -0.644531 3.890625 -0.34375 C 3.523438 -0.0507812 3.035156 0.09375 2.421875 0.09375 Z M 2.421875 0.09375 "/></g></g></g><g fill="#ffffff" fill-opacity="1"><g transform="translate(1.65187, 21.401501)"><g><path d="M 6.1875 -0.3125 L 6.1875 -0.28125 C 6 -0.226562 5.800781 -0.175781 5.59375 -0.125 C 5.382812 -0.0703125 5.160156 -0.03125 4.921875 0 C 4.453125 0.0703125 4.019531 0.109375 3.625 0.109375 C 2.988281 0.109375 2.429688 -0.0078125 1.953125 -0.25 C 1.472656 -0.476562 1.101562 -0.816406 0.84375 -1.265625 C 0.582031 -1.710938 0.453125 -2.242188 0.453125 -2.859375 C 0.453125 -3.859375 0.738281 -4.617188 1.3125 -5.140625 C 1.875 -5.679688 2.675781 -5.953125 3.71875 -5.953125 C 3.976562 -5.953125 4.207031 -5.941406 4.40625 -5.921875 C 4.613281 -5.898438 4.8125 -5.875 5 -5.84375 C 5.082031 -5.820312 5.207031 -5.789062 5.375 -5.75 C 5.550781 -5.707031 5.757812 -5.65625 6 -5.59375 L 6 -4.234375 L 5.59375 -4.234375 L 5.484375 -5 C 5.367188 -5.070312 5.25 -5.140625 5.125 -5.203125 C 5 -5.265625 4.863281 -5.316406 4.71875 -5.359375 C 4.445312 -5.453125 4.160156 -5.5 3.859375 -5.5 C 3.179688 -5.5 2.679688 -5.285156 2.359375 -4.859375 C 2.054688 -4.441406 1.90625 -3.785156 1.90625 -2.890625 C 1.90625 -2.054688 2.066406 -1.429688 2.390625 -1.015625 C 2.722656 -0.585938 3.203125 -0.375 3.828125 -0.375 C 4.148438 -0.375 4.472656 -0.421875 4.796875 -0.515625 L 4.796875 -2.21875 L 4.046875 -2.34375 L 4.046875 -2.65625 L 6.75 -2.65625 L 6.75 -2.34375 L 6.1875 -2.21875 Z M 6.1875 -0.3125 "/></g></g></g><g fill="#ffffff" fill-opacity="1"><g transform="translate(8.640816, 21.401501)"><g><path d="M 2.296875 -2.5 L 2.296875 -0.453125 L 3.046875 -0.328125 L 3.046875 -0.015625 L 0.203125 -0.015625 L 0.203125 -0.328125 L 0.90625 -0.453125 L 0.90625 -5.46875 L 0.15625 -5.578125 L 0.15625 -5.90625 L 2.96875 -5.90625 C 3.84375 -5.90625 4.488281 -5.769531 4.90625 -5.5 C 5.332031 -5.226562 5.546875 -4.8125 5.546875 -4.25 C 5.546875 -3.40625 5.148438 -2.863281 4.359375 -2.625 L 5.9375 -0.4375 L 6.578125 -0.328125 L 6.578125 0 L 4.671875 0 L 3.03125 -2.5 Z M 4.1875 -4.25 L 4.171875 -4.234375 C 4.171875 -4.679688 4.082031 -4.988281 3.90625 -5.15625 C 3.71875 -5.332031 3.390625 -5.421875 2.921875 -5.421875 L 2.296875 -5.421875 L 2.296875 -2.984375 L 2.9375 -2.984375 C 3.382812 -2.984375 3.703125 -3.082031 3.890625 -3.28125 C 4.085938 -3.46875 4.1875 -3.789062 4.1875 -4.25 Z M 4.1875 -4.25 "/></g></g></g><g fill="#ffffff" fill-opacity="1"><g transform="translate(15.13505, 21.401501)"><g><path d="M 1.875 -0.328125 L 1.875 0 L 0.09375 0 L 0.09375 -0.328125 L 0.53125 -0.4375 L 2.625 -5.9375 L 3.890625 -5.9375 L 5.984375 -0.4375 L 6.4375 -0.328125 L 6.4375 0 L 3.8125 0 L 3.8125 -0.328125 L 4.484375 -0.4375 L 3.9375 -1.96875 L 1.671875 -1.96875 L 1.125 -0.4375 Z M 2.8125 -5.0625 L 1.84375 -2.453125 L 3.765625 -2.453125 Z M 2.8125 -5.0625 "/></g></g></g><g fill="#ffffff" fill-opacity="1"><g transform="translate(21.629283, 21.401501)"><g><path d="M 5.078125 -5.453125 L 4.28125 -5.578125 L 4.28125 -5.890625 L 6.375 -5.890625 L 6.375 -5.578125 L 5.625 -5.453125 L 5.625 0 L 5.109375 0 L 1.46875 -4.734375 L 1.46875 -0.4375 L 2.265625 -0.328125 L 2.265625 0 L 0.171875 0 L 0.171875 -0.328125 L 0.921875 -0.4375 L 0.921875 -5.453125 L 0.171875 -5.578125 L 0.171875 -5.890625 L 2.1875 -5.890625 L 5.078125 -2.125 Z M 5.078125 -5.453125 "/></g></g></g><g fill="#ffffff" fill-opacity="1"><g transform="translate(28.123517, 21.401501)"><g><path d="M 4.59375 -2.9375 C 4.59375 -3.789062 4.441406 -4.414062 4.140625 -4.8125 C 3.835938 -5.207031 3.332031 -5.40625 2.625 -5.40625 L 2.296875 -5.40625 L 2.296875 -0.5 C 2.441406 -0.488281 2.578125 -0.476562 2.703125 -0.46875 C 2.828125 -0.46875 2.945312 -0.46875 3.0625 -0.46875 C 3.4375 -0.46875 3.734375 -0.550781 3.953125 -0.71875 C 4.179688 -0.875 4.347656 -1.128906 4.453125 -1.484375 C 4.546875 -1.847656 4.59375 -2.332031 4.59375 -2.9375 Z M 2.96875 -5.890625 L 2.96875 -5.875 C 4.019531 -5.875 4.800781 -5.632812 5.3125 -5.15625 C 5.8125 -4.6875 6.0625 -3.957031 6.0625 -2.96875 C 6.0625 -1.96875 5.820312 -1.21875 5.34375 -0.71875 C 4.851562 -0.226562 4.117188 0.015625 3.140625 0.015625 L 1.171875 0 L 0.15625 0 L 0.15625 -0.328125 L 0.921875 -0.4375 L 0.921875 -5.453125 L 0.15625 -5.578125 L 0.15625 -5.890625 Z M 2.96875 -5.890625 "/></g></g></g><g fill="#ffffff" fill-opacity="1"><g transform="translate(34.61775, 21.401501)"><g><path d="M 0.15625 -0.328125 L 0.90625 -0.4375 L 0.90625 -5.453125 L 0.15625 -5.578125 L 0.15625 -5.890625 L 5.171875 -5.890625 L 5.171875 -4.390625 L 4.765625 -4.390625 L 4.640625 -5.34375 C 4.472656 -5.363281 4.269531 -5.378906 4.03125 -5.390625 C 3.789062 -5.398438 3.515625 -5.40625 3.203125 -5.40625 L 2.296875 -5.40625 L 2.296875 -3.25 L 3.828125 -3.25 L 3.96875 -3.890625 L 4.359375 -3.890625 L 4.359375 -2.09375 L 3.96875 -2.09375 L 3.828125 -2.75 L 2.296875 -2.75 L 2.296875 -0.484375 L 3.40625 -0.484375 C 3.78125 -0.484375 4.09375 -0.488281 4.34375 -0.5 C 4.59375 -0.507812 4.773438 -0.53125 4.890625 -0.5625 L 5.140625 -1.640625 L 5.546875 -1.640625 L 5.453125 0 L 0.15625 0 Z M 0.15625 -0.328125 "/></g></g></g><g fill="#ffffff" fill-opacity="1"><g transform="translate(40.60827, 21.401501)"><g><path d="M 0.484375 -1.8125 L 0.84375 -1.8125 L 1.046875 -0.875 C 1.160156 -0.738281 1.347656 -0.617188 1.609375 -0.515625 C 1.859375 -0.421875 2.117188 -0.375 2.390625 -0.375 C 3.222656 -0.375 3.640625 -0.71875 3.640625 -1.40625 C 3.640625 -1.625 3.5625 -1.804688 3.40625 -1.953125 C 3.238281 -2.109375 2.984375 -2.242188 2.640625 -2.359375 C 2.390625 -2.441406 2.175781 -2.515625 2 -2.578125 C 1.820312 -2.648438 1.675781 -2.710938 1.5625 -2.765625 C 1.332031 -2.878906 1.140625 -3.007812 0.984375 -3.15625 C 0.835938 -3.289062 0.71875 -3.457031 0.625 -3.65625 C 0.539062 -3.851562 0.5 -4.097656 0.5 -4.390625 C 0.5 -4.910156 0.675781 -5.304688 1.03125 -5.578125 C 1.382812 -5.835938 1.894531 -5.96875 2.5625 -5.96875 C 3.0625 -5.96875 3.613281 -5.90625 4.21875 -5.78125 L 4.21875 -4.390625 L 3.8125 -4.390625 L 3.625 -5.1875 C 3.320312 -5.40625 2.972656 -5.515625 2.578125 -5.515625 C 2.210938 -5.515625 1.9375 -5.445312 1.75 -5.3125 C 1.550781 -5.175781 1.453125 -4.972656 1.453125 -4.703125 C 1.453125 -4.503906 1.535156 -4.332031 1.703125 -4.1875 C 1.867188 -4.050781 2.117188 -3.929688 2.453125 -3.828125 C 3.128906 -3.597656 3.59375 -3.40625 3.84375 -3.25 C 4.09375 -3.082031 4.285156 -2.878906 4.421875 -2.640625 C 4.546875 -2.398438 4.609375 -2.117188 4.609375 -1.796875 C 4.609375 -0.546875 3.875 0.0820312 2.40625 0.09375 C 2.070312 0.09375 1.726562 0.0664062 1.375 0.015625 C 1.195312 -0.015625 1.035156 -0.0507812 0.890625 -0.09375 C 0.742188 -0.132812 0.609375 -0.175781 0.484375 -0.21875 Z M 0.484375 -1.8125 "/></g></g></g><g fill="#ffffff" fill-opacity="1"><g transform="translate(45.609366, 21.401501)"><g/></g></g><g fill="#ffffff" fill-opacity="1"><g transform="translate(47.858057, 21.401501)"><g><path d="M 2.296875 -2.5 L 2.296875 -0.453125 L 3.046875 -0.328125 L 3.046875 -0.015625 L 0.203125 -0.015625 L 0.203125 -0.328125 L 0.90625 -0.453125 L 0.90625 -5.46875 L 0.15625 -5.578125 L 0.15625 -5.90625 L 2.96875 -5.90625 C 3.84375 -5.90625 4.488281 -5.769531 4.90625 -5.5 C 5.332031 -5.226562 5.546875 -4.8125 5.546875 -4.25 C 5.546875 -3.40625 5.148438 -2.863281 4.359375 -2.625 L 5.9375 -0.4375 L 6.578125 -0.328125 L 6.578125 0 L 4.671875 0 L 3.03125 -2.5 Z M 4.1875 -4.25 L 4.171875 -4.234375 C 4.171875 -4.679688 4.082031 -4.988281 3.90625 -5.15625 C 3.71875 -5.332031 3.390625 -5.421875 2.921875 -5.421875 L 2.296875 -5.421875 L 2.296875 -2.984375 L 2.9375 -2.984375 C 3.382812 -2.984375 3.703125 -3.082031 3.890625 -3.28125 C 4.085938 -3.46875 4.1875 -3.789062 4.1875 -4.25 Z M 4.1875 -4.25 "/></g></g></g><g fill="#ffffff" fill-opacity="1"><g transform="translate(54.35229, 21.401501)"><g><path d="M 1.875 -0.328125 L 1.875 0 L 0.09375 0 L 0.09375 -0.328125 L 0.53125 -0.4375 L 2.625 -5.9375 L 3.890625 -5.9375 L 5.984375 -0.4375 L 6.4375 -0.328125 L 6.4375 0 L 3.8125 0 L 3.8125 -0.328125 L 4.484375 -0.4375 L 3.9375 -1.96875 L 1.671875 -1.96875 L 1.125 -0.4375 Z M 2.8125 -5.0625 L 1.84375 -2.453125 L 3.765625 -2.453125 Z M 2.8125 -5.0625 "/></g></g></g><g fill="#ffffff" fill-opacity="1"><g transform="translate(60.846524, 21.401501)"><g><path d="M 2.4375 -0.4375 L 3.1875 -0.328125 L 3.1875 0 L 0.3125 0 L 0.3125 -0.328125 L 1.0625 -0.4375 L 1.0625 -5.453125 L 0.3125 -5.578125 L 0.3125 -5.890625 L 3.1875 -5.890625 L 3.1875 -5.578125 L 2.4375 -5.453125 Z M 1.046875 -6.375 L 1.046875 -6.53125 L 1.765625 -7.71875 L 3.03125 -7.71875 L 3.03125 -7.5625 L 1.421875 -6.375 Z M 1.046875 -6.375 "/></g></g></g><g fill="#ffffff" fill-opacity="1"><g transform="translate(64.345492, 21.401501)"><g><path d="M 0.4375 -0.5 L 3.6875 -5.421875 L 2.640625 -5.421875 C 2.304688 -5.421875 2.019531 -5.410156 1.78125 -5.390625 C 1.550781 -5.378906 1.367188 -5.359375 1.234375 -5.328125 L 1.09375 -4.40625 L 0.703125 -4.40625 L 0.703125 -5.890625 L 5.25 -5.890625 L 5.25 -5.421875 L 1.96875 -0.453125 L 3.203125 -0.453125 C 3.535156 -0.453125 3.863281 -0.46875 4.1875 -0.5 C 4.351562 -0.519531 4.492188 -0.535156 4.609375 -0.546875 C 4.722656 -0.566406 4.816406 -0.585938 4.890625 -0.609375 L 5.140625 -1.734375 L 5.546875 -1.734375 L 5.421875 0 L 0.4375 0 Z M 0.4375 -0.5 "/></g></g></g><g fill="#ffffff" fill-opacity="1"><g transform="translate(70.336012, 21.401501)"><g><path d="M 0.15625 -0.328125 L 0.90625 -0.4375 L 0.90625 -5.453125 L 0.15625 -5.578125 L 0.15625 -5.890625 L 5.171875 -5.890625 L 5.171875 -4.390625 L 4.765625 -4.390625 L 4.640625 -5.34375 C 4.472656 -5.363281 4.269531 -5.378906 4.03125 -5.390625 C 3.789062 -5.398438 3.515625 -5.40625 3.203125 -5.40625 L 2.296875 -5.40625 L 2.296875 -3.25 L 3.828125 -3.25 L 3.96875 -3.890625 L 4.359375 -3.890625 L 4.359375 -2.09375 L 3.96875 -2.09375 L 3.828125 -2.75 L 2.296875 -2.75 L 2.296875 -0.484375 L 3.40625 -0.484375 C 3.78125 -0.484375 4.09375 -0.488281 4.34375 -0.5 C 4.59375 -0.507812 4.773438 -0.53125 4.890625 -0.5625 L 5.140625 -1.640625 L 5.546875 -1.640625 L 5.453125 0 L 0.15625 0 Z M 0.15625 -0.328125 "/></g></g></g><g fill="#ffffff" fill-opacity="1"><g transform="translate(76.326532, 21.401501)"><g><path d="M 0.484375 -1.8125 L 0.84375 -1.8125 L 1.046875 -0.875 C 1.160156 -0.738281 1.347656 -0.617188 1.609375 -0.515625 C 1.859375 -0.421875 2.117188 -0.375 2.390625 -0.375 C 3.222656 -0.375 3.640625 -0.71875 3.640625 -1.40625 C 3.640625 -1.625 3.5625 -1.804688 3.40625 -1.953125 C 3.238281 -2.109375 2.984375 -2.242188 2.640625 -2.359375 C 2.390625 -2.441406 2.175781 -2.515625 2 -2.578125 C 1.820312 -2.648438 1.675781 -2.710938 1.5625 -2.765625 C 1.332031 -2.878906 1.140625 -3.007812 0.984375 -3.15625 C 0.835938 -3.289062 0.71875 -3.457031 0.625 -3.65625 C 0.539062 -3.851562 0.5 -4.097656 0.5 -4.390625 C 0.5 -4.910156 0.675781 -5.304688 1.03125 -5.578125 C 1.382812 -5.835938 1.894531 -5.96875 2.5625 -5.96875 C 3.0625 -5.96875 3.613281 -5.90625 4.21875 -5.78125 L 4.21875 -4.390625 L 3.8125 -4.390625 L 3.625 -5.1875 C 3.320312 -5.40625 2.972656 -5.515625 2.578125 -5.515625 C 2.210938 -5.515625 1.9375 -5.445312 1.75 -5.3125 C 1.550781 -5.175781 1.453125 -4.972656 1.453125 -4.703125 C 1.453125 -4.503906 1.535156 -4.332031 1.703125 -4.1875 C 1.867188 -4.050781 2.117188 -3.929688 2.453125 -3.828125 C 3.128906 -3.597656 3.59375 -3.40625 3.84375 -3.25 C 4.09375 -3.082031 4.285156 -2.878906 4.421875 -2.640625 C 4.546875 -2.398438 4.609375 -2.117188 4.609375 -1.796875 C 4.609375 -0.546875 3.875 0.0820312 2.40625 0.09375 C 2.070312 0.09375 1.726562 0.0664062 1.375 0.015625 C 1.195312 -0.015625 1.035156 -0.0507812 0.890625 -0.09375 C 0.742188 -0.132812 0.609375 -0.175781 0.484375 -0.21875 Z M 0.484375 -1.8125 "/></g></g></g></g></g></g><g fill="#ffffff" fill-opacity="1"><g transform="translate(35.11639, 338.688141)"><g><path d="M 23.078125 -20.0625 C 23.078125 -18.613281 22.734375 -17.242188 22.046875 -15.953125 C 21.359375 -14.671875 20.257812 -13.625 18.75 -12.8125 C 17.238281 -12 15.304688 -11.59375 12.953125 -11.59375 L 7.765625 -11.59375 L 7.765625 0 L 3.078125 0 L 3.078125 -28.578125 L 12.953125 -28.578125 C 15.148438 -28.578125 17.007812 -28.195312 18.53125 -27.4375 C 20.050781 -26.6875 21.1875 -25.664062 21.9375 -24.375 C 22.695312 -23.09375 23.078125 -21.65625 23.078125 -20.0625 Z M 12.953125 -15.421875 C 14.734375 -15.421875 16.0625 -15.820312 16.9375 -16.625 C 17.820312 -17.4375 18.265625 -18.582031 18.265625 -20.0625 C 18.265625 -23.1875 16.492188 -24.75 12.953125 -24.75 L 7.765625 -24.75 L 7.765625 -15.421875 Z M 12.953125 -15.421875 "/></g></g></g><g fill="#ffffff" fill-opacity="1"><g transform="translate(65.578475, 338.688141)"><g><path d="M 7.765625 -3.78125 L 17.4375 -3.78125 L 17.4375 0 L 3.078125 0 L 3.078125 -28.578125 L 7.765625 -28.578125 Z M 7.765625 -3.78125 "/></g></g></g><g fill="#ffffff" fill-opacity="1"><g transform="translate(89.833367, 338.688141)"><g><path d="M 20.3125 -5.84375 L 8.34375 -5.84375 L 6.296875 0 L 1.390625 0 L 11.640625 -28.625 L 17.0625 -28.625 L 27.3125 0 L 22.375 0 Z M 19 -9.671875 L 14.359375 -22.953125 L 9.671875 -9.671875 Z M 19 -9.671875 "/></g></g></g><g fill="#ffffff" fill-opacity="1"><g transform="translate(124.488389, 338.688141)"><g><path d="M 26.5625 0 L 21.875 0 L 7.765625 -21.34375 L 7.765625 0 L 3.078125 0 L 3.078125 -28.625 L 7.765625 -28.625 L 21.875 -7.3125 L 21.875 -28.625 L 26.5625 -28.625 Z M 26.5625 0 "/></g></g></g><g fill="#ffffff" fill-opacity="1"><g transform="translate(160.129977, 338.688141)"><g><path d="M 21.546875 -28.578125 L 21.546875 -24.75 L 13.9375 -24.75 L 13.9375 0 L 9.25 0 L 9.25 -24.75 L 1.609375 -24.75 L 1.609375 -28.578125 Z M 21.546875 -28.578125 "/></g></g></g><g fill="#ffffff" fill-opacity="1"><g transform="translate(189.331367, 338.688141)"><g><path d="M 20.515625 -5.09375 L 9.75 -5.09375 L 8.015625 0 L 0.65625 0 L 11.109375 -28.875 L 19.25 -28.875 L 29.6875 0 L 22.25 0 Z M 18.71875 -10.53125 L 15.140625 -21.09375 L 11.59375 -10.53125 Z M 18.71875 -10.53125 "/></g></g></g><g fill="#ffffff" fill-opacity="1"><g transform="translate(225.630674, 338.688141)"><g><path d="M 9.578125 -23.234375 L 9.578125 -17.390625 L 19 -17.390625 L 19 -11.96875 L 9.578125 -11.96875 L 9.578125 -5.640625 L 20.234375 -5.640625 L 20.234375 0 L 2.546875 0 L 2.546875 -28.875 L 20.234375 -28.875 L 20.234375 -23.234375 Z M 11.1875 -33.875 L 4.8125 -30.515625 L 4.8125 -35.359375 L 11.1875 -38.609375 L 17.5625 -35.359375 L 17.5625 -30.515625 Z M 11.1875 -33.875 "/></g></g></g><g clip-path="url(#b4d064393b)"><g clip-path="url(#080b444a56)"><g clip-path="url(#348dd74922)"><path fill="#ffffff" d="M 136.050781 4.421875 C 165.515625 33.257812 203.273438 85.425781 153.683594 115.488281 C 155.242188 92.773438 147.503906 70.832031 141.722656 49.265625 L 140.820312 116.925781 C 88.601562 95.066406 114.558594 39.28125 136.050781 4.421875 Z M 136.050781 4.421875 " fill-opacity="1" fill-rule="nonzero"/></g></g></g><g clip-path="url(#3e4ec23851)"><g transform="matrix(1, 0, 0, 1, 0, 190)"><g clip-path="url(#60191926f1)"><g clip-path="url(#577f85187d)"><path fill="#ffffff" d="M 264.6875 85.507812 C 260.535156 85.320312 253.9375 82.875 249.035156 82.019531 C 214.804688 74.199219 182.652344 96.535156 151.160156 106.910156 C 144.65625 109.082031 136.917969 111.0625 130.035156 110.210938 C 126.355469 109.734375 123.246094 108.417969 120.042969 106.625 C 79.210938 81.925781 41.304688 54.578125 7.738281 20.539062 C 2.929688 16.207031 -2.542969 7.433594 3.679688 2.4375 C 9.433594 -1.527344 17.351562 1.5 22.632812 5.167969 C 34.609375 13.277344 57.054688 27.898438 67.519531 37.132812 C 70.726562 41.097656 70.441406 46.09375 72.519531 51.28125 C 73.929688 55.054688 77.136719 59.007812 80.160156 60.800781 C 89.585938 65.605469 111.183594 64.382812 125.890625 64.667969 C 136.074219 64.667969 143.992188 64.195312 153.332031 61.84375 C 157.203125 60.714844 162.007812 59.765625 165.308594 58.070312 C 165.6875 57.59375 162.949219 57.6875 159.089844 57.6875 C 139.003906 57.6875 112.976562 57.660156 94.972656 57.5 C 88.808594 57.441406 88.941406 57.6875 86.390625 56.5625 C 83.660156 55.242188 81.488281 52.785156 79.980469 50.054688 C 76.964844 44.585938 78.472656 37.140625 83.28125 33.273438 C 90.542969 27.242188 117.984375 27.992188 129.949219 26.484375 C 151.730469 25.628906 169.554688 13.191406 190.386719 8.753906 C 220.371094 2.53125 248.941406 13.65625 276.476562 23.46875 C 279.300781 24.503906 284.867188 26.105469 285.246094 28.277344 C 285.53125 29.308594 285.246094 30.542969 284.867188 31.574219 C 281.945312 39.777344 274.492188 60.808594 269.875 74.007812 C 268.464844 78.066406 267.335938 81.367188 266.574219 83.253906 C 266.195312 84.191406 265.636719 85.234375 264.59375 85.328125 L 264.59375 85.519531 L 264.6875 85.519531 Z M 264.6875 85.507812 " fill-opacity="1" fill-rule="nonzero"/></g></g></g></g><g clip-path="url(#c173ae2e99)"><g clip-path="url(#9d77dbfc9b)"><g clip-path="url(#3e110e037a)"><path fill="#ffffff" d="M 154.257812 214.617188 C 149.21875 215.0625 143.457031 215.953125 138.421875 216.050781 C 138.285156 216.050781 138.210938 215.890625 138.304688 215.789062 C 139.96875 214 140.703125 210.535156 141.179688 209.042969 C 155.394531 161.457031 142.628906 119.625 145.386719 74.816406 C 149.316406 109.171875 156.847656 145.296875 157.429688 179.871094 C 157.625 189.3125 156.597656 199.421875 155.273438 208.917969 C 155.273438 208.917969 154.691406 212.808594 154.257812 214.617188 Z M 154.257812 214.617188 " fill-opacity="1" fill-rule="nonzero"/></g></g></g><g clip-path="url(#a331cf4a55)"><path fill="#ffffff" d="M 233.628906 112.363281 C 234.132812 117.023438 233.066406 122.921875 232.222656 127.523438 C 225.992188 162.621094 211 204.792969 166.300781 187.382812 L 209.59375 141.28125 L 162.988281 182.386719 C 157.429688 170.03125 158.046875 153.128906 166.582031 141.84375 C 181.519531 121.964844 212.738281 122.078125 233.628906 112.308594 Z M 233.628906 112.363281 " fill-opacity="1" fill-rule="nonzero"/></g><g clip-path="url(#28ecd4eacc)"><g clip-path="url(#0d09f5662a)"><g clip-path="url(#cdbf9ac723)"><path fill="#ffffff" d="M 54.320312 127.707031 C 78 131.882812 109.890625 123.847656 129.976562 140.433594 C 140.828125 149.417969 145.675781 166.140625 143.359375 179.785156 L 85.941406 150.578125 L 141.890625 185.511719 C 96.078125 218.835938 67.375 164.375 54.320312 127.707031 Z M 54.320312 127.707031 " fill-opacity="1" fill-rule="nonzero"/></g></g></g></g></g></svg>